<?xml version="1.0" encoding="UTF-8"?> <svg xmlns="http://www.w3.org/2000/svg" id="Ebene_1" data-name="Ebene 1" viewBox="0 0 301.27 85.46"><defs><style>.cls-1{fill:#1a1a18;}</style></defs><path class="cls-1" d="M112.3,39.05V29.93c0-6.32,3.92-10.23,11.16-10.23,6,0,9.32,2.39,10.75,6.79.28.76.08,1.08-.64,1.36l-1.67.56c-.72.28-1,.12-1.32-.64-1-3-3.08-4.48-7.12-4.48-4.8,0-7.32,2.4-7.32,6.6v9.16c0,4.24,2.6,6.64,7.36,6.64s7.36-2.4,7.36-5.92v-2.6h-7c-.76,0-1-.28-1-1V34.65c0-.8.28-1.08,1-1.08h9.67c.8,0,1.09.28,1.09,1.08v5.12c0,5.6-4,9.52-11.16,9.52S112.3,45.37,112.3,39.05Z" transform="translate(-11.87 -9.77)"></path><path class="cls-1" d="M139,41.65V35.09c0-4.72,3.32-7.64,9-7.64s9,2.92,9,7.64v6.56c0,4.72-3.23,7.64-9,7.64S139,46.37,139,41.65Zm14.4,0V35.09c0-2.8-2-4.4-5.44-4.4s-5.4,1.6-5.4,4.4v6.56c0,2.76,2.08,4.4,5.4,4.4S153.42,44.41,153.42,41.65Z" transform="translate(-11.87 -9.77)"></path><path class="cls-1" d="M161.38,41.65V35.09c0-4.72,3.32-7.64,9-7.64s9,2.92,9,7.64v6.56c0,4.72-3.24,7.64-9,7.64S161.38,46.37,161.38,41.65Zm14.4,0V35.09c0-2.8-2-4.4-5.44-4.4s-5.4,1.6-5.4,4.4v6.56c0,2.76,2.08,4.4,5.4,4.4S175.78,44.41,175.78,41.65Z" transform="translate(-11.87 -9.77)"></path><path class="cls-1" d="M183.78,41.25V35.61c0-5.2,2.64-8.16,8.08-8.16a21.15,21.15,0,0,1,5.63.88V20.05c0-.71.24-1,.92-1h1.68c.72,0,1,.25,1,1v25.8c0,1.32-.32,1.68-1.6,2.2a19,19,0,0,1-7.16,1.24C186.46,49.29,183.78,46.37,183.78,41.25Zm13.15,4.16c.52-.24.56-.32.56-.8v-13a16,16,0,0,0-5-.92c-3.59,0-5.19,1.72-5.19,5v5.4c0,3.2,1.76,4.88,5.28,4.88A15.32,15.32,0,0,0,196.93,45.41Z" transform="translate(-11.87 -9.77)"></path><path class="cls-1" d="M217,47.65V21.33c0-.76.28-1,1.08-1h1.72a1,1,0,0,1,1,.51l11.23,16.36a70.56,70.56,0,0,1,3.48,6.36h.2c0-.88-.68-4.16-.68-7.72V21.33c0-.76.28-1,1-1h1.64c.8,0,1,.27,1,1V47.65c0,.76-.24,1-1,1H236a1.08,1.08,0,0,1-1.08-.52L223.5,31.53c-1.64-2.48-2.8-5.56-3.24-6.16h-.16c0,.76.64,4.12.64,7.48v14.8c0,.76-.28,1-1.08,1h-1.6C217.26,48.69,217,48.41,217,47.65Z" transform="translate(-11.87 -9.77)"></path><path class="cls-1" d="M244.22,41V36c0-5.4,3.16-8.56,9-8.56,6.15,0,9,3.56,9,8.28v2.32c0,.84-.36,1.4-1.44,1.4H247.78v1.92c0,3,1.88,4.84,5.36,4.84,2.88,0,4.6-1.12,5.59-2.8.48-.64.84-.76,1.56-.36l1.08.56a1,1,0,0,1,.36,1.56c-1.44,2.44-4,4.12-8.59,4.12C246.9,49.29,244.22,45.85,244.22,41Zm14.51-4.28V35.53c0-3.16-1.83-5-5.47-5s-5.48,1.88-5.48,5v1.16Z" transform="translate(-11.87 -9.77)"></path><path class="cls-1" d="M271.06,47.93l-5.64-18.76c-.24-.88-.12-1.12.8-1.12h1.2c1.12,0,1.52.16,1.68,1l3,10.88c.35,1.56.64,4,.76,4.48h.15c.16-.44.44-2.88.92-4.52l3.32-10.52c.24-.8.44-1,1.56-1h.72c1.12,0,1.32.16,1.56.92l3.32,10.48c.56,1.84.8,4.12,1,4.6h.16c.12-.48.32-2.56.8-4.56l3-10.8c.2-.8.56-1,1.68-1h1c.92,0,1.08.24.8,1.12l-5.64,18.76c-.2.64-.6.84-1.32.84h-1.08c-.72,0-1.12-.2-1.32-.84L280,36.09a34.92,34.92,0,0,1-.76-3.68h-.16c-.12.32-.32,2-.8,3.68L274.7,47.93c-.21.68-.57.84-1.29.84h-1.08C271.66,48.77,271.26,48.61,271.06,47.93Z" transform="translate(-11.87 -9.77)"></path><path class="cls-1" d="M296,44.37a.85.85,0,0,1,.6-1.28l1.4-.48c.6-.2.92-.12,1.24.6.8,2.12,2.6,2.92,5.4,2.92,3.39,0,5-1.08,5-3.08,0-2.4-2-2.84-5.36-3.16-4-.4-8.07-1.08-8.07-6.24,0-3.72,2.68-6.2,8-6.2,4.6,0,7.12,1.72,8.36,4.32.36.72.16,1.12-.52,1.4l-1.36.56c-.68.28-.88.2-1.32-.44-.72-1.56-2-2.64-5.08-2.64s-4.59,1-4.59,2.92c0,2.56,2.12,2.88,5.43,3.2,4.56.4,8,1.4,8,6.12,0,3.8-2.84,6.4-8.43,6.4C300.18,49.29,297.26,47.65,296,44.37Z" transform="translate(-11.87 -9.77)"></path><path class="cls-1" d="M113.1,84.51V58.2c0-.76.28-1,1.08-1h1.36c.88,0,1.12.16,1.48.8l9.24,16.35L135.41,58a1.25,1.25,0,0,1,1.4-.84h1.52c.8,0,1,.28,1,1V84.51c0,.76-.24,1-1,1h-1.56c-.8,0-1.08-.28-1.08-1l0-14.48a40.64,40.64,0,0,1,.72-7.47h-.24a45,45,0,0,1-3.16,6.67l-5.11,9.08a1.17,1.17,0,0,1-1.2.76h-1c-.68,0-.88-.16-1.24-.76l-5.2-9.12a33.64,33.64,0,0,1-3-6.67h-.2a47.48,47.48,0,0,1,.6,7.51V84.51c0,.76-.24,1-1,1h-1.48C113.38,85.55,113.1,85.27,113.1,84.51Z" transform="translate(-11.87 -9.77)"></path><path class="cls-1" d="M144.58,79.79c0-4.68,2.6-6.24,8.91-6.24,2,0,3.88.24,4.6.28V72.27c0-2.84-1-4.8-4.75-4.8-2.44,0-4,.84-5,2.48-.4.6-.6.72-1.28.44l-1.28-.52c-.68-.28-.88-.64-.52-1.36,1.4-2.64,4-4.19,8.16-4.19,6.43,0,8.23,3.55,8.23,8.07V82.83c0,1.4-.32,1.8-1.44,2.28a18,18,0,0,1-6.87,1C146.34,86.15,144.58,83.87,144.58,79.79Zm12.87,2.88c.52-.16.64-.32.64-.88V76.67c-.8-.08-3-.28-5-.28-3.76,0-4.92,1.12-4.92,3.36s.84,3.44,4.84,3.44A13.9,13.9,0,0,0,157.45,82.67Z" transform="translate(-11.87 -9.77)"></path><path class="cls-1" d="M167,91.11c-.44-.68-.32-1.16.4-1.52l1.16-.64c.76-.4,1.08-.24,1.56.4a5.12,5.12,0,0,0,5,2.68c3.48,0,5.12-2,5.12-5.32V84.43a18.08,18.08,0,0,1-5.64,1c-5.55,0-8.07-3-8.07-7.92V72.59c0-5.36,2.84-8.27,8.79-8.27a18.13,18.13,0,0,1,7,1.23c1.28.56,1.48.88,1.48,2.2v18.8c0,5.2-2.44,8.68-8.6,8.68C170.82,95.23,168.38,93.59,167,91.11Zm13.19-9.84V69c0-.48-.08-.6-.56-.8a13.69,13.69,0,0,0-4.12-.64c-3.71,0-5.47,1.72-5.47,5.16v4.72c0,3,1.68,4.76,5,4.76A15.86,15.86,0,0,0,180.17,81.27Z" transform="translate(-11.87 -9.77)"></path><path class="cls-1" d="M188.38,79.79c0-4.68,2.6-6.24,8.91-6.24,2,0,3.88.24,4.6.28V72.27c0-2.84-1-4.8-4.76-4.8-2.44,0-4,.84-5,2.48-.39.6-.6.72-1.27.44l-1.29-.52c-.67-.28-.87-.64-.51-1.36,1.39-2.64,4-4.19,8.15-4.19,6.44,0,8.24,3.55,8.24,8.07V82.83c0,1.4-.32,1.8-1.44,2.28a18.06,18.06,0,0,1-6.88,1C190.14,86.15,188.38,83.87,188.38,79.79Zm12.87,2.88c.52-.16.64-.32.64-.88V76.67c-.8-.08-3-.28-5-.28-3.76,0-4.91,1.12-4.91,3.36s.84,3.44,4.83,3.44A13.93,13.93,0,0,0,201.25,82.67Z" transform="translate(-11.87 -9.77)"></path><path class="cls-1" d="M209.66,84.59V83.27a1.27,1.27,0,0,1,.32-1l11-14.16H210.78c-.72,0-1-.2-1-.92V65.87c0-.71.24-1,1-1h13.79c.72,0,1,.25,1,1v1.32a1.39,1.39,0,0,1-.36,1l-11,14.08h10.6c.72,0,1,.24,1,1v1.32c0,.72-.24,1-1,1h-14.2C209.9,85.55,209.66,85.31,209.66,84.59Z" transform="translate(-11.87 -9.77)"></path><path class="cls-1" d="M230,58.84v-.28c0-1.48.4-1.84,1.88-1.84h.28c1.44,0,1.88.36,1.88,1.84v.28c0,1.48-.44,1.84-1.88,1.84h-.28C230.41,60.68,230,60.36,230,58.84Zm.24,25.75V65.87c0-.71.24-1,1-1h1.64c.72,0,1,.25,1,1V84.59c0,.72-.24,1-1,1h-1.64C230.49,85.55,230.25,85.31,230.25,84.59Z" transform="translate(-11.87 -9.77)"></path><path class="cls-1" d="M239.57,84.59V67.91a2,2,0,0,1,1.52-2.23,19.33,19.33,0,0,1,7.64-1.36c5.6,0,8.12,3,8.12,7.91V84.59c0,.72-.24,1-1,1h-1.64c-.72,0-1-.24-1-1V72.35c0-3.16-1.6-4.8-5-4.8a13.79,13.79,0,0,0-4.64.76.67.67,0,0,0-.48.72V84.59c0,.72-.24,1-1,1h-1.64C239.81,85.55,239.57,85.31,239.57,84.59Z" transform="translate(-11.87 -9.77)"></path><path class="cls-1" d="M17.45,91.09H14.83L22.3,73A35.81,35.81,0,0,1,11.87,48c0-10.26,4.49-19.89,12.63-27.12A45.33,45.33,0,0,1,54.71,9.77h0A45.3,45.3,0,0,1,85,20.91C93.09,28.15,97.57,37.78,97.57,48c0,17.59-13.34,32.85-32.44,37.1-1.25.28-2.53.51-3.81.69a1.75,1.75,0,0,1-.48-3.47c1.19-.16,2.37-.37,3.53-.63C81.85,77.83,94.07,64,94.07,48c0-9.24-4.06-17.95-11.44-24.51a41.83,41.83,0,0,0-27.9-10.26h0A41.88,41.88,0,0,0,26.82,23.51C19.44,30.07,15.37,38.77,15.37,48A32.49,32.49,0,0,0,25.58,71.38l.85.82L20.16,87.38C29.25,86,45.3,78.68,59.54,67.11c9.1-7.4,14.54-15.64,14.54-22a10.06,10.06,0,0,0-2.75-7,9.1,9.1,0,0,0-6.61-2.84h0c-4.22,0-6.62,2.4-8.54,4.66l-1.34,1.56-1.33-1.56c-1.92-2.26-4.32-4.67-8.54-4.67h0a9.1,9.1,0,0,0-6.61,2.84,10.07,10.07,0,0,0-2.76,7c0,5.06,2.58,9.29,9.87,16.17a1.75,1.75,0,0,1-2.4,2.54c-8.1-7.64-11-12.53-11-18.71a13.57,13.57,0,0,1,3.73-9.42A12.57,12.57,0,0,1,45,31.71h0a13.4,13.4,0,0,1,9.88,4.41,13.39,13.39,0,0,1,9.87-4.4h0a12.57,12.57,0,0,1,9.14,3.92,13.53,13.53,0,0,1,3.72,9.42c0,7.57-5.77,16.59-15.83,24.77C46.82,82,27.78,91.09,17.45,91.09Z" transform="translate(-11.87 -9.77)"></path></svg> 