<svg xmlns="http://www.w3.org/2000/svg" id="Wort-Bildmarke" fill="#1B5E7C" viewBox="0 0 2203.98967 801.97482"><path d="m778.40626,343.54347c23.16965,0,41.05606,7.23542,53.16204,21.50511,12.02246,14.17134,18.1182,35.08289,18.1182,62.15393l.00198,146.24887h44.21661l.16705-148.85639c0-41.6689-10.61096-73.25713-31.53832-93.88846-18.48294-18.221-44.33029-27.46-76.82295-27.46-44.39305,0-70.12821,18.17504-83.90022,33.4223l-3.52974,3.90732.02026-34.59756h-43.72783v267.47278l44.38712.00099v-133.72824c0-29.33755,7.30758-53.7136,21.13296-70.49394,13.84515-16.80456,34.00943-25.68673,58.31283-25.68673Z"/><path d="m1192.15135,553.23619c20.63972,15.44149,49.83444,23.60358,84.42805,23.60358,29.37461,0,56.17433-7.73953,75.46186-21.79275,20.3768-14.84793,31.14789-35.38041,31.14789-59.37788,0-27.34534-10.43699-46.60025-31.908-58.86438-18.99693-10.85165-44.59173-15.69453-77.17681-19.62756-41.07188-4.99363-66.24263-9.44311-66.24263-36.80772,0-23.62483,24.09335-38.88988,61.38146-38.88988,35.12835,0,60.88427,18.66975,64.0898,46.45791l.07216.62371,45.08397-.00099-.05733-.75665c-2.00852-26.61834-13.55554-48.39971-33.39264-62.99114-18.80715-13.83477-45.00292-21.28765-75.75345-21.55206-.49521-.00395-.98449-.00692-1.48069-.00692-34.12311,0-63.33759,10.33222-82.26138,29.09291-13.99441,13.87332-21.39094,31.65496-21.39094,51.42238,0,25.69266,10.34309,43.94232,31.62135,55.79279,20.12474,11.20551,48.47335,15.89074,76.11028,19.28457l2.08562.24563c38.43569,4.54191,66.20507,7.82354,66.20507,39.97618,0,23.64756-25.49101,39.53583-63.43051,39.53583-21.2318,0-39.3678-5.21257-52.44789-15.07428-12.65902-9.54443-19.75704-22.73721-20.52704-38.1525l-.03361-.66868h-45.05037l.01285.71662c.50707,28.37035,12.07485,51.81924,33.45294,67.8113Z"/><path d="m1808.41885,435.68336l-2.02335.05239c-.04942-1.92846-.09687-3.74967-.09687-5.5343v-.07216c-2.07376-78.21864-50.5738-126.84223-126.57338-126.84223-37.00344,0-68.68409,13.12754-91.61701,37.96371-22.88152,24.77933-34.97515,58.95384-34.97515,98.8292,0,40.2312,12.48011,74.47737,36.09209,99.03579,23.74838,24.70125,57.02637,37.75762,96.23601,37.75762,29.74034,0,56.46394-9.08085,77.28159-26.26002,20.0862-16.57524,33.48655-39.53435,38.75397-66.39634l.16507-.84018h-44.39009l-.13641.52882c-4.27503,16.60044-13.50809,30.36405-26.70087,39.80172-13.04056,9.32845-29.66324,14.25931-48.07402,14.25931-24.27028,0-45.00391-8.34643-59.95711-24.13783-14.6023-15.41925-22.73325-36.78449-23.51511-61.78524l-.00494-2.73058,207.32441-.00198.05338-.64595c.35782-4.29331.24612-8.61628.13838-12.7974l2.01939-.18435Zm-206.76297-23.25169l.30839-2.29468c2.5581-18.98704,11.78227-36.21663,25.97535-48.51487,14.44909-12.52113,33.02494-19.41702,52.30654-19.41702,44.1321,0,73.5166,25.40502,78.60314,67.95808l.26985,2.26453-157.46328.00395Z"/><path d="m1953.28466,348.33149l22.3438.00692v-43.02999h-12.92491c-21.91976,0-39.50124,4.12379-53.74869,12.60614-8.67657,5.16512-16.0227,11.91373-22.45649,20.6333l-3.65329,4.95063v-38.19006h-43.72091v268.21678h43.72091v-137.07925c0-16.93997,2.52054-41.07929,14.52718-59.87803,11.96711-18.73647,30.77821-28.23642,55.91239-28.23642Z"/><rect x="571.38402" y="305.97513" width="44.38366" height="267.47575"/><circle cx="593.47973" cy="249.08665" r="26.34256"/><path d="m1444.44822,558.36029c12.19049,12.44107,29.64841,18.84866,50.34053,18.49875,20.8987-.35979,34.05886-3.26483,49.72769-8.1611l.5733-.17891-5.65687-38.91855-.77296.21647c-9.45448,2.64706-23.10787,5.80267-34.46115,5.80267-3.70469,0-13.18586-.54068-21.2061-5.54617-9.07986-5.66774-13.68404-15.20426-13.68404-28.34416l-.00198-2.44047.01285-151.88894,70.26066-.00939v-42.35784l-70.26066.02669.00099-73.68365h-43.69719l.00198,73.65745-33.43712.00346-.02471,42.3613,33.619.0089-.16804,154.75938c-.85006,23.0026,5.83875,42.93411,18.83384,56.1941Z"/><line x1="999.63764" y1="437.17002" x2="996.527" y2="435.19115"/><path d="m445.64209,408.12801c-6.82666-17.73242-14.56201-32.7959-19.11377-40.31055l-83.75488-145.40039-83.72461,145.32227c-4.55762,7.51562-12.30225,22.58887-19.12842,40.33398-5.19922,13.51855-11.39697,32.67871-11.39697,47.18848,0,67.33203,51.25342,122.11133,114.25195,122.11133,63.00928,0,114.27148-54.7793,114.27148-122.11133,0-14.46973-6.20215-33.61816-11.40479-47.13379Zm-89.75684-25.19445l32.38855,53.77567-32.38855,27.88679Zm4.06934,85.08887c-.65381.52734-4.0473,3.41402-4.0473,3.41402,0,0-.00041-3.53809-.00509-5.14411-.01098-3.76782,1.02196-22.0771,1.5143-25.12147,1.93604-11.99609,5.66748-22.41309,11.09131-30.96191,7.44336-11.73145,21.36625-22.96202,33.53813-32.3751,0,0,9.66226,15.31286,19.5764,40.71198l-61.66775,49.4766Zm-3.47363,81.93329l-.59668.10156.00293-.60449c.07471-14.93164.61328-23.54657,6.17432-38.45966,6.43945-17.27539,38.18945-41.91016,39.14746-42.65918,6.2666-4.89258,28.55337-23.08221,28.55337-23.08221,3.71115,22.3442-2.91747,53.52977-24.06997,76.98034-13.46046,14.92284-30.44824,24.53613-49.21143,27.72363Zm-26.82129-248.68457v248.78516l-.59326-.10156c-18.75635-3.18945-35.76807-12.77637-49.19629-27.72363-16.19873-18.03613-25.11963-41.81934-25.11963-66.96973,0-19.38184,17.71338-59.10059,26.81543-74.07617l48.09375-79.91406Z"/><path d="m1028.2641,462.70147c31.57615,24.96484,65.73758,59.80932,86.70397,105.2595.46654,1.01135,1.65042,4.43178,1.99722,5.49041l44.77989.00216c-14.87378-42.6963-47.19177-85.64753-59.60142-100.77318-24.59944-29.9833-47.93589-45.46499-47.93589-45.46499,14.93423-15.29813,61.74245-69.52213,76.87646-122.53754l-44.22908-.00003c-8.81494,24.06122-25.62676,56.35575-64.51312,94.28387-23.67627,23.09207-47.29419,38.20834-47.29419,38.20834v-206.22677h-44.22107v342.50813h44.22107s.00098-7.59381,0-11.26651c-.04954-48.02384-5.30324-68.06573,46.57344-104.56267,1.42468,1.20822,5.17904,3.92206,6.64271,5.07928Z"/></svg>
