<svg xmlns="http://www.w3.org/2000/svg" viewBox="0 0 471.36 151.51"><defs><style>.d{fill:#1d1d1b;}</style></defs><g id="a"/><g id="b"><g id="c"><g><path class="d" d="M68.94,41.94c-4.85-6.15-11.66-9.21-20.43-9.21H17.1L0,113.27H20.15l4.33-20.27h11.27c8.77,0,16.87-3.07,24.31-9.21,7.07-5.85,11.47-12.82,13.21-20.92,1.74-8.1,.3-15.08-4.33-20.92Zm-15.77,20.92c-.74,3.48-2.57,6.42-5.5,8.83-2.59,2.14-5.29,3.22-8.1,3.22h-11.27l5.11-24.09h11.27c2.81,0,5.07,1.07,6.77,3.22,1.89,2.37,2.46,5.31,1.72,8.83Z"/><path class="d" d="M146.21,32.78l-17.48,31.7-7.11-34.7-21.87,34.7-4.05-31.7h-20.92l11.88,84.37,24.81-39.63,8,39.63,47.74-84.37h-20.98Z"/><path class="d" d="M370.16,32.78l-11.32,53.45c-.63,2.92-2.14,5.37-4.55,7.32-2.04,1.7-4.18,2.55-6.44,2.55s-4.07-.85-5.44-2.55c-1.52-1.96-1.96-4.4-1.33-7.32l11.32-53.45h-20.15l-11.32,53.45c-1.63,7.51-.3,13.99,4,19.43,4.47,5.74,10.82,8.61,19.04,8.61s15.78-2.87,22.7-8.61c6.59-5.44,10.69-11.91,12.32-19.43l11.32-53.45h-20.15Z"/><path class="d" d="M425.96,73.8l-27.2-42.85-17.49,82.32h19.04l5.83-27.54,12.6,21.98,21.93-21.98-5.83,27.54h19.03l17.49-82.32-45.4,42.85Z"/><path class="d" d="M251.32,0l-28.78,44.66c-.86-1.98-2.04-3.78-3.54-5.39-4.07-4.37-9.97-6.55-17.71-6.55h-29.37l-17.1,80.54h20.15l5.5-25.76,15.37,25.76h17.98l9.36-28.81-10.53,1.73L251.32,0Zm-47.75,60.03c-.56,2.52-1.67,4.63-3.33,6.33-1.88,1.93-4.11,2.89-6.66,2.89h-9.21l3.89-18.43h9.21c2.55,0,4.37,.97,5.44,2.89,.96,1.74,1.18,3.85,.66,6.33Z"/><path class="d" d="M277.99,82.23h16.99l-1.22,6c-2.41,2.37-5.05,4.26-7.94,5.66-3.44,1.67-6.97,2.5-10.6,2.5-5.95,0-10.65-2.14-14.09-6.44-2.39-3.08-3.65-6.61-3.81-10.61-.07-1.96,.12-4.03,.59-6.21,1.41-6.59,4.87-12.17,10.38-16.76,1.6-1.32,3.23-2.43,4.9-3.35,3.8-2.1,7.78-3.15,11.93-3.15,3.44,0,6.53,.8,9.27,2.39,2.85,1.67,5.05,4.02,6.61,7.05l18.93-9.77c-2.74-5.55-6.81-9.88-12.21-12.99-5.51-3.18-11.77-4.78-18.76-4.78-11.91,0-22.93,4.17-33.03,12.49-.68,.56-1.35,1.14-1.99,1.72-6.79,6.08-11.59,13.03-14.38,20.85l10.97-1.72s-40.05,85.53-40.43,86.4l32.92-50.3c.21,.28,.42,.56,.64,.84,6.55,8.33,15.78,12.49,27.7,12.49,7.25,0,14.43-1.72,21.54-5.16,6.99-3.41,13.62-8.71,19.87-15.93l6.17-29.37h-37.08l-3.83,18.15Z"/></g></g></g></svg>
