<svg class="brand__logo" width="60" height="30" viewBox="0 0 60 30" fill="none" xmlns="http://www.w3.org/2000/svg">
<path d="M12.8416 11.6631H4.83257V21.3147C4.83257 22.1016 5.46699 22.7213 6.2465 22.7213H8.6047L8.59978 25.0745H5.79158C3.68175 25.0745 2.01208 23.4024 2.01208 21.3123V11.6631H0.121094V9.31225H2.02929V5.54012L4.83749 4.59832V9.31225H12.8416V11.6631ZM13.776 9.30734H18.9645C21.0621 9.30734 22.7219 10.9942 22.7219 12.9467V25.0647H19.9039V23.9016C19.9039 23.9016 18.9695 25.3131 16.5965 25.3131C13.7686 25.3131 10.9555 23.3704 10.9555 20.1123C10.9555 16.8467 13.776 14.9286 16.6014 14.9286H19.8916V13.0106C19.8916 12.3541 19.4072 11.6631 18.5268 11.6631H13.7809V9.30242L13.776 9.30734ZM19.894 17.3041H16.6039C15.6645 17.3041 13.776 18.0344 13.776 20.1319C13.776 22.4852 15.6842 22.9598 16.599 22.9598C18.9695 22.9598 19.894 21.5582 19.894 20.309V17.3016V17.3041ZM45.817 9.31225C50.2555 9.31225 52.8596 12.7401 52.8596 17.3778C52.8596 22.1532 50.2678 25.5418 45.817 25.5418C41.3121 25.5418 38.7547 22.136 38.7547 17.3778C38.7547 12.7254 41.3121 9.31225 45.817 9.31225ZM45.817 23.1811C48.6326 23.1811 50.0563 20.2057 50.0563 17.4221C50.0563 14.6311 48.6055 11.6926 45.817 11.6926C42.9891 11.6926 41.5629 14.6311 41.5629 17.4368C41.5629 20.2819 43.0137 23.186 45.817 23.186V23.1811ZM37.7834 17.4516V4.59832H34.9555V10.7114C33.817 9.86061 32.6022 9.30979 30.7555 9.30979C26.2383 9.30979 23.6981 12.7106 23.6981 17.4491C23.6981 21.9147 26.2383 25.5393 30.7555 25.5393C35.194 25.5393 37.7735 21.9 37.7834 17.4491V17.4516ZM30.7531 23.1885C27.6867 23.1885 26.5285 20.2278 26.5285 17.4442C26.5285 14.6262 27.9178 11.6754 30.7506 11.6754C33.5932 11.6754 34.9408 14.6262 34.9408 17.4442C34.9408 20.2278 33.5711 23.1885 30.7531 23.1885ZM56.1375 4.59094C54.0547 4.59094 52.3629 6.27783 52.3629 8.36061C52.3629 10.4459 54.0547 12.1327 56.1375 12.1327C58.2203 12.1327 59.9072 10.4459 59.9072 8.36061C59.9072 6.27783 58.2203 4.59094 56.1375 4.59094ZM56.1375 11.1885C54.5735 11.1885 53.3096 9.92209 53.3096 8.36061C53.3096 6.8016 54.5735 5.53275 56.1375 5.53275C57.699 5.53275 58.9654 6.8016 58.9654 8.36061C58.9654 9.92209 57.699 11.1885 56.1375 11.1885Z" fill="#1C1C1C"></path>
</svg>
