<svg xmlns="http://www.w3.org/2000/svg" width="182.099" height="43" viewBox="0 0 182.099 43">
  <g id="Viertelladen" transform="translate(0 -0.212)">
    <path id="Pfad_419" data-name="Pfad 419" d="M168.87,46.218c-4.561,0-6.918-2.761-6.918-6.713a11.211,11.211,0,0,1,.784-4.186c1.743-1.772,4.561-4.5,7.325-4.5,3.722,0,5.667,2.559,5.667,6.858L173.2,39.88h-6.656c.347,1.542,1.687,2.5,3.778,2.5a10.4,10.4,0,0,0,4.476-1.134l.816,1.4-3.661,3.2a12.69,12.69,0,0,1-3.08.379ZM167.042,34.5a12.279,12.279,0,0,0-.465,2.527h4.5c-.145-2.006-1.162-2.761-2.587-2.761A4.733,4.733,0,0,0,167.042,34.5Z" transform="translate(-29.485 -3.005)" fill="#030201"/>
    <path id="Pfad_420" data-name="Pfad 420" d="M130.008,44.292c-1.191.844-2.789,1.917-4.185,1.917-2.963,0-4.738-1.655-4.738-4.158a5.466,5.466,0,0,1,.29-1.861c2.006-1.8,4.242-3.342,6.89-3.342a10.646,10.646,0,0,1,1.744.145c-.056-1.744-.816-2.442-2.7-2.442a8.527,8.527,0,0,0-4.533,1.425l-.815-1.4,3.577-3.112a9.939,9.939,0,0,1,3.6-.67c3.314,0,5.61,1.889,5.61,5.7v9.272h-4.738V44.292Zm0-2.527V39.876a8.919,8.919,0,0,0-2.325-.291,4.426,4.426,0,0,0-1.687.262,3.25,3.25,0,0,0-.234,1.134,1.662,1.662,0,0,0,1.8,1.8A4.161,4.161,0,0,0,130,41.765Z" transform="translate(-22.044 -3.002)" fill="#030201"/>
    <path id="Pfad_421" data-name="Pfad 421" d="M150.782,42.924c-1.542,1.4-3.051,2.381-4.241,2.381-3.834,0-5.872-3.224-5.872-6.945a11.373,11.373,0,0,1,.815-3.951c1.945-1.8,4.85-4.5,7.409-4.5a6.209,6.209,0,0,1,1.889.262v-4.33h4.939V44.869h-4.939Zm0-2.817V34.469a3.6,3.6,0,0,0-2.849-.989,4.839,4.839,0,0,0-1.917.408,9.31,9.31,0,0,0-.524,3.023c0,2.09.7,4.213,2.816,4.213a3.749,3.749,0,0,0,2.47-1.017Z" transform="translate(-25.61 -2.099)" fill="#030201"/>
    <path id="Pfad_422" data-name="Pfad 422" d="M186.854,35.867v9.91h-4.94V31.245h4.94v1.889c1.687-1.453,3.08-2.325,4.593-2.325,3.722,0,5.259,2.151,5.259,6.1v8.864h-5.114V37.9c0-2.006-.553-2.906-2.18-2.906A4.3,4.3,0,0,0,186.854,35.867Z" transform="translate(-33.119 -3.004)" fill="#030201"/>
    <path id="Pfad_423" data-name="Pfad 423" d="M112.169,25.837h4.939V44.869h-4.939Z" transform="translate(-20.421 -2.099)" fill="#030201"/>
    <path id="Pfad_424" data-name="Pfad 424" d="M3.927,42.383,0,31.347H5.376l2.789,9.764,2.878-9.764h4.593L10.422,46C9.4,46.314,5.667,47.259,3.927,42.383Z" transform="translate(0 -3.102)" fill="#030201"/>
    <path id="Pfad_425" data-name="Pfad 425" d="M55.047,36.51v9.272h-5V31.25h5v2.587c1.28-1.655,2.644-3.023,3.951-3.023a2.238,2.238,0,0,1,1.744.726l-1.308,4.477A4.329,4.329,0,0,0,57.6,35.67a3.994,3.994,0,0,0-2.559.844Z" transform="translate(-9.112 -3.005)" fill="#030201"/>
    <path id="Pfad_426" data-name="Pfad 426" d="M72.163,45.308c-3.051,0-4.737-1.8-4.737-5.174V33.686h-3.4l.989-3.341h2.413v-4.5h4.705v4.5h5.056L76.2,33.686H72.134v5.2c0,1.917.67,2.587,2.062,2.587a5.67,5.67,0,0,0,2.962-.989l.815,1.4-3.487,3.111a8.217,8.217,0,0,1-2.324.319Z" transform="translate(-11.657 -2.1)" fill="#030201"/>
    <path id="Pfad_427" data-name="Pfad 427" d="M89.16,46.218c-4.561,0-6.918-2.761-6.918-6.713a11.218,11.218,0,0,1,.783-4.186c1.744-1.772,4.561-4.5,7.326-4.5,3.721,0,5.667,2.559,5.667,6.858L93.491,39.88H86.835c.347,1.542,1.687,2.5,3.778,2.5a10.4,10.4,0,0,0,4.476-1.134l.815,1.4-3.661,3.2a12.69,12.69,0,0,1-3.08.379ZM87.328,34.5a12.274,12.274,0,0,0-.464,2.527h4.5c-.145-2.006-1.162-2.761-2.587-2.761A4.734,4.734,0,0,0,87.328,34.5Z" transform="translate(-14.973 -3.005)" fill="#030201"/>
    <path id="Pfad_428" data-name="Pfad 428" d="M21.16,31.341H26.1V45.873H21.16Z" transform="translate(-3.852 -3.101)" fill="#030201"/>
    <path id="Pfad_429" data-name="Pfad 429" d="M102.2,25.836h4.94V44.868H102.2Z" transform="translate(-18.606 -2.099)" fill="#030201"/>
    <path id="Pfad_430" data-name="Pfad 430" d="M26.1,28.375V23.434H21.16A4.941,4.941,0,0,0,26.1,28.375Z" transform="translate(-3.852 -2.854)" fill="#030201"/>
    <path id="Pfad_431" data-name="Pfad 431" d="M37,46.218c-4.561,0-6.918-2.761-6.918-6.713a11.217,11.217,0,0,1,.783-4.186c1.744-1.772,4.561-4.5,7.326-4.5,3.721,0,5.667,2.559,5.667,6.858L41.334,39.88H34.678c.347,1.542,1.687,2.5,3.778,2.5a10.4,10.4,0,0,0,4.476-1.134l.815,1.4-3.661,3.2a12.689,12.689,0,0,1-3.08.379ZM35.174,34.5a12.273,12.273,0,0,0-.464,2.527h4.5c-.145-2.006-1.162-2.761-2.587-2.761A4.734,4.734,0,0,0,35.174,34.5Z" transform="translate(-5.477 -3.005)" fill="#030201"/>
    <path id="Pfad_432" data-name="Pfad 432" d="M162.179,6.842a4.781,4.781,0,0,1,.807-2.576A4.224,4.224,0,0,1,165.32,3.06a1.123,1.123,0,0,1,1.2,1.207c0,1.336-1.458,1.946-3.206,2.1a1.206,1.206,0,0,0-.012.21c0,.993.267,1.469.985,1.469a2.871,2.871,0,0,0,1.668-.674l.177.319-1.094.908a2.829,2.829,0,0,1-1.15.242c-1.139,0-1.7-.719-1.7-2ZM163.992,4.1a5.177,5.177,0,0,0-.63,1.748c1.393-.121,2.156-.63,2.156-1.413a.551.551,0,0,0-.63-.618,1.774,1.774,0,0,0-.9.287Z" transform="translate(-29.526 -0.518)" fill="#030201"/>
    <path id="Pfad_433" data-name="Pfad 433" d="M170.146,2.707l-.9,5.45h-1.062l.908-5.45Zm-.311-1.037a.6.6,0,0,1-.641-.63.769.769,0,0,1,.751-.828.6.6,0,0,1,.641.63A.769.769,0,0,1,169.836,1.67Z" transform="translate(-30.62)" fill="#030201"/>
    <path id="Pfad_434" data-name="Pfad 434" d="M173.189,4.731,172.5,8.675H171.43l.908-5.45h1.029l-.133,1.042a3.777,3.777,0,0,1,2.034-1.207c.985,0,1.316.662,1.094,2.035l-.573,3.581h-1.082l.521-3.294c.165-1.029.1-1.348-.477-1.348a2.653,2.653,0,0,0-1.558.7Z" transform="translate(-31.21 -0.518)" fill="#030201"/>
    <path id="Pfad_435" data-name="Pfad 435" d="M183.21,8.293,182.249.765h1.163l.618,6.289L187.057.765h1.106L184.3,8.293Z" transform="translate(-33.18 -0.101)" fill="#030201"/>
    <path id="Pfad_436" data-name="Pfad 436" d="M191.217,2.707l-.9,5.45H189.26l.908-5.45Zm-.307-1.037a.6.6,0,0,1-.641-.63.769.769,0,0,1,.751-.828.6.6,0,0,1,.641.63A.769.769,0,0,1,190.911,1.67Z" transform="translate(-34.456)" fill="#030201"/>
    <path id="Pfad_437" data-name="Pfad 437" d="M192.52,6.842a4.782,4.782,0,0,1,.807-2.576,4.224,4.224,0,0,1,2.334-1.207,1.123,1.123,0,0,1,1.194,1.207c0,1.336-1.457,1.946-3.2,2.1a1.2,1.2,0,0,0-.012.21c0,.993.267,1.469.985,1.469a2.871,2.871,0,0,0,1.668-.674l.177.319-1.094.908a2.83,2.83,0,0,1-1.15.242c-1.139,0-1.7-.719-1.7-2ZM194.333,4.1a5.177,5.177,0,0,0-.63,1.748c1.393-.121,2.156-.63,2.156-1.413a.551.551,0,0,0-.63-.618,1.771,1.771,0,0,0-.9.287Z" transform="translate(-35.05 -0.518)" fill="#030201"/>
    <path id="Pfad_438" data-name="Pfad 438" d="M198.51,8.675l.909-5.45h.985l-.19,1.381c.565-.985,1.037-1.546,1.481-1.546a.786.786,0,0,1,.528.19l-.274,1.062a.973.973,0,0,0-.432-.1c-.465,0-.852.3-1.316.916l-.63,3.548Z" transform="translate(-36.14 -0.518)" fill="#030201"/>
    <path id="Pfad_439" data-name="Pfad 439" d="M205.241,8.495c-1.106,0-1.425-.807-1.2-2.067l.521-2.785h-.961l.287-.763h.82l.318-1.712h1.005l-.3,1.712h1.647l-.287.763H205.6l-.488,2.83c-.177.949.025,1.227.529,1.227a1.9,1.9,0,0,0,1.126-.464l.177.319-.941.783a2.006,2.006,0,0,1-.775.153h.008Z" transform="translate(-37.068 -0.174)" fill="#030201"/>
    <path id="Pfad_440" data-name="Pfad 440" d="M208.55,6.842a4.774,4.774,0,0,1,.807-2.576,4.221,4.221,0,0,1,2.333-1.207,1.123,1.123,0,0,1,1.2,1.207c0,1.336-1.458,1.946-3.2,2.1a1.206,1.206,0,0,0-.012.21c0,.993.266,1.469.985,1.469a2.87,2.87,0,0,0,1.667-.674l.177.319L211.4,8.6a2.833,2.833,0,0,1-1.151.242c-1.138,0-1.7-.719-1.7-2ZM210.363,4.1a5.142,5.142,0,0,0-.63,1.748c1.392-.121,2.155-.63,2.155-1.413a.551.551,0,0,0-.63-.618,1.771,1.771,0,0,0-.9.287Z" transform="translate(-37.968 -0.518)" fill="#030201"/>
    <path id="Pfad_441" data-name="Pfad 441" d="M214.539,8.171l1.348-7.88h1.049L215.6,8.171Z" transform="translate(-39.058 -0.014)" fill="#030201"/>
    <path id="Pfad_442" data-name="Pfad 442" d="M164.019,16.962l-.82,4.687h-1.062l.807-4.687h-.993l.331-.763h.82a6.242,6.242,0,0,1,.573-1.623,3.3,3.3,0,0,1,1.966-.993,1.189,1.189,0,0,1,.993.5l-.663.775a1.184,1.184,0,0,0-.916-.4,1.361,1.361,0,0,0-.63.166l-.274,1.582h1.6l-.331.763h-1.4Z" transform="translate(-29.485 -1.567)" fill="#030201"/>
    <path id="Pfad_443" data-name="Pfad 443" d="M169.881,20.658a3.617,3.617,0,0,1-1.979,1.2c-.941,0-1.271-.662-1.037-2.035l.586-3.581h1.081L168,19.54c-.177,1.029-.089,1.336.42,1.336a2.577,2.577,0,0,0,1.514-.719l.674-3.912h1.074l-.9,5.45h-1.037l.133-1.037Zm-1.207-5.4a.582.582,0,0,1-.618-.63.73.73,0,0,1,.718-.783.579.579,0,0,1,.61.618.727.727,0,0,1-.707.8Zm2.091,0a.582.582,0,0,1-.618-.63.722.722,0,0,1,.719-.783.578.578,0,0,1,.609.618.726.726,0,0,1-.707.8Z" transform="translate(-30.366 -1.6)" fill="#030201"/>
    <path id="Pfad_444" data-name="Pfad 444" d="M173.585,22.19l.909-5.45h.985l-.19,1.381c.565-.985,1.037-1.546,1.481-1.546a.785.785,0,0,1,.528.19l-.274,1.062a.972.972,0,0,0-.432-.1c-.465,0-.851.3-1.316.916l-.63,3.548Z" transform="translate(-31.602 -1.993)" fill="#030201"/>
    <path id="Pfad_445" data-name="Pfad 445" d="M177.606,21.491l.63-.763a2.1,2.1,0,0,0,1.647.819,2.258,2.258,0,0,0,.707-.121.925.925,0,0,0,.077-.367c0-1.05-2.046-1.538-2.046-2.8a1.489,1.489,0,0,1,.2-.719,3.265,3.265,0,0,1,2-.973,1.864,1.864,0,0,1,1.405.618l-.565.719a1.722,1.722,0,0,0-1.292-.541,1.786,1.786,0,0,0-.763.165.855.855,0,0,0-.065.3c0,.929,2.111,1.558,2.111,2.818a1.435,1.435,0,0,1-.222.763,3.221,3.221,0,0,1-2.066.941,2.243,2.243,0,0,1-1.756-.864Z" transform="translate(-32.334 -1.987)" fill="#030201"/>
    <path id="Pfad_446" data-name="Pfad 446" d="M188.37,21.807l-.961-7.529h1.162l.618,6.289,3.028-6.289h1.106l-3.867,7.529Z" transform="translate(-34.119 -1.664)" fill="#030201"/>
    <path id="Pfad_447" data-name="Pfad 447" d="M196.378,16.225l-.9,5.45H194.42l.908-5.45Zm-.308-1.037a.6.6,0,0,1-.641-.63.769.769,0,0,1,.751-.828.6.6,0,0,1,.641.63A.769.769,0,0,1,196.071,15.188Z" transform="translate(-35.396 -1.588)" fill="#030201"/>
    <path id="Pfad_448" data-name="Pfad 448" d="M197.68,20.353a4.781,4.781,0,0,1,.807-2.576,4.223,4.223,0,0,1,2.334-1.207,1.123,1.123,0,0,1,1.2,1.207c0,1.336-1.458,1.946-3.206,2.1a1.205,1.205,0,0,0-.012.21c0,.993.267,1.469.986,1.469a2.87,2.87,0,0,0,1.667-.674l.178.319-1.094.908a2.833,2.833,0,0,1-1.151.242c-1.139,0-1.7-.719-1.7-2Zm1.813-2.737a5.176,5.176,0,0,0-.63,1.748c1.393-.121,2.156-.63,2.156-1.413a.551.551,0,0,0-.63-.618,1.774,1.774,0,0,0-.9.287Z" transform="translate(-35.989 -1.987)" fill="#030201"/>
    <path id="Pfad_449" data-name="Pfad 449" d="M203.67,22.19l.908-5.45h.986l-.19,1.381c.565-.985,1.037-1.546,1.481-1.546a.786.786,0,0,1,.528.19l-.274,1.062a.972.972,0,0,0-.432-.1c-.465,0-.852.3-1.316.916l-.63,3.548Z" transform="translate(-37.08 -1.993)" fill="#030201"/>
    <path id="Pfad_450" data-name="Pfad 450" d="M210.4,22.014c-1.106,0-1.425-.807-1.2-2.067l.521-2.785h-.961l.287-.763h.82l.319-1.712h1l-.3,1.712h1.647l-.287.763h-1.494l-.488,2.83c-.177.949.02,1.227.529,1.227a1.9,1.9,0,0,0,1.126-.464l.177.319-.941.783a2.007,2.007,0,0,1-.775.153h.008Z" transform="translate(-38.007 -1.718)" fill="#030201"/>
    <path id="Pfad_451" data-name="Pfad 451" d="M213.71,20.352a4.774,4.774,0,0,1,.807-2.576,4.221,4.221,0,0,1,2.333-1.207,1.123,1.123,0,0,1,1.2,1.207c0,1.336-1.458,1.946-3.206,2.1a1.29,1.29,0,0,0-.011.21c0,.993.266,1.469.985,1.469a2.87,2.87,0,0,0,1.667-.674l.177.319-1.094.908a2.834,2.834,0,0,1-1.151.242c-1.138,0-1.7-.719-1.7-2Zm1.816-2.737a5.157,5.157,0,0,0-.629,1.748c1.392-.121,2.155-.63,2.155-1.413a.551.551,0,0,0-.63-.618,1.777,1.777,0,0,0-.9.287Z" transform="translate(-38.907 -1.987)" fill="#030201"/>
    <path id="Pfad_452" data-name="Pfad 452" d="M219.7,21.688l1.348-7.88H222.1l-1.336,7.88Z" transform="translate(-39.998 -1.599)" fill="#030201"/>
  </g>
</svg>
