<svg xmlns="http://www.w3.org/2000/svg" width="3920" height="1111.593" viewBox="0 0 3920 1111.593">
  <path id="Spreat" data-name="Spreat" d="M414.3,121.61q7.311,4.874,23.152,13.4l58.489,36.556q19.5,12.184,51.787,35.946t46.913,40.821q14.622,17.06,32.9,43.258t22.543,52.4q4.265,26.2,2.437,60.317T638.505,476.2q-19.5,64.582-70.674,107.84T455.117,644.968q-61.536,17.669-133.429,17.668-81.641,0-170.594-23.152T1.216,578.558V371.409H26.805Q32.9,435.99,57.877,486.56t61.536,80.422q36.556,29.854,76.767,45.695a326.2,326.2,0,0,0,82.86,20.716q59.708,6.092,102.965-27.417t54.225-81.032q6.093-25.589-2.437-48.132t-34.728-45.695q-26.2-23.152-47.523-37.775t-63.973-41.43a53.411,53.411,0,0,0-9.748-4.874q-36.556-21.934-61.536-38.384t-57.271-41.43Q126.724,242.244,105.4,219.7T63.97,165.477Q43.864,133.8,35.944,102.113t-6.7-71.892q1.219-40.212,15.841-82.86Q73.109-136.718,157.8-178.147t188.262-37.775a461.362,461.362,0,0,1,91.389,11.576q45.086,10.358,79.814,24.98t82.251,38.993V50.936H576.361Q572.7-9.991,551.381-56.295t-51.787-72.5Q469.13-155,435.012-168.4t-68.238-13.4q-40.211,0-76.158,38.384T252.233-64.824Q249.8-36.8,258.325-13.646t31.682,46.3a346.879,346.879,0,0,0,49.96,41.43Q366.774,92.367,414.3,121.61ZM1097.89,30.221q131.6,0,222.991,81.641t91.389,218.116q0,136.475-91.389,220.554T1097.89,634.61q-73.111,0-127.945-36.556V784.489q0,37.774,12.185,56.052t46.3,20.715v34.119H664.095V861.256q32.9-2.437,45.086-20.715t12.185-56.052V188.629q0-37.775-12.185-56.052t-45.086-20.715V83.837L906.581,30.221h46.3V77.743Q1011.375,30.221,1097.89,30.221ZM1046.712,594.4q34.119,1.218,61.536-40.212t41.43-101.746a539.39,539.39,0,0,0,14.013-122.463q0-98.7-32.9-176.077t-84.078-77.376q-45.086,0-71.284,24.979t-26.2,55.443q0,18.277-1.828,108.449t-1.828,143.176q0,53.005,3.656,100.528,3.655,36.556,36.556,60.926T1046.712,594.4ZM2041.03,120.392q13.4,24.37,15.231,54.834t-14.623,62.754q-16.45,32.291-53.006,46.912-49.96,21.934-98.7-2.437t-62.145-98.7a139.717,139.717,0,0,0-21.324-55.443q-16.45-24.98-32.291-20.106-20.715,6.094-28.026,38.384t-7.312,104.184l1.219,282.7q0,26.808,4.874,42.649a50.431,50.431,0,0,0,18.887,26.2q14.013,10.357,37.165,11.576v34.119H1422.018V613.9q34.118-2.437,46.913-21.934t12.794-58.489V200.815q0-38.994-12.794-57.88t-46.913-22.543v-32.9l243.705-57.27h49.96V121.61q54.833-91.39,168.157-91.389,52.4,0,93.827,23.151T2041.03,120.392ZM2645.419,476.2,2663.7,494.48q-36.556,68.238-103.574,110.886T2394.4,648.014a368.473,368.473,0,0,1-123.68-21.324,348.173,348.173,0,0,1-107.84-60.926q-47.522-39.6-74.33-102.357t-21.933-137.084q4.874-90.171,45.085-157.19T2220.762,66.168q68.847-35.946,159.018-35.947,59.708,0,107.84,15.841t76.767,41.43a325.044,325.044,0,0,1,49.959,56.052q21.324,30.463,29.854,60.926t13.4,55.443q4.874,24.98,4.874,40.821v15.84H2301.795a351.139,351.139,0,0,0,7.311,70.066,343.5,343.5,0,0,0,23.761,72.5,154.825,154.825,0,0,0,48.741,60.926q32.291,24.37,76.158,26.808,58.489,3.657,107.84-16.45T2645.419,476.2ZM2388.31,55.81q-36.556,0-59.1,72.5t-28.635,157.8h157.19q0-34.119-3.046-69.457t-9.748-73.72q-6.7-38.385-21.324-62.755T2388.31,55.81Zm955.325,516.655,10.967,20.716q-12.185,20.714-53.006,37.774t-88.343,17.059q-45.086,0-96.873-22.543t-71.284-59.1q-23.151,43.867-69.456,63.363a214.469,214.469,0,0,1-95.045,17.059q-101.138-4.874-145-92.608-40.211-81.64-3.656-166.938,41.429-96.263,153.534-114.541a211.274,211.274,0,0,1,51.178-3.656q10.967,0,46.3.609t41.43-.609V144.762a184.2,184.2,0,0,0-1.219-24.37q-1.219-8.53-2.437-20.106t-4.265-17.669q-3.046-6.092-6.7-12.185a24.639,24.639,0,0,0-9.139-9.139,39.569,39.569,0,0,0-12.795-4.266q-21.933-2.436-32.291,17.669t-10.357,68.847q0,60.926-39.6,92.608t-94.436,17.059q-45.085-10.966-61.535-47.523t9.139-85.3q19.5-32.9,62.145-54.224t85.3-28.636a525.821,525.821,0,0,1,88.952-7.311,411.325,411.325,0,0,1,74.33,6.7q36.556,6.7,74.939,23.761t67.019,42.04q28.635,24.98,46.913,66.409t18.278,92.608V567.592q0,20.714,13.4,24.98t28.636-3.047Q3333.886,582.214,3343.634,572.465Zm-378.961,19.5q20.715,0,40.211-14.622t19.5-35.338V298.3a19.9,19.9,0,0,1-4.874-1.219q-14.622,0-26.2.61T2957.362,305q-24.37,6.7-40.82,20.715T2886.687,370.8q-13.4,31.072-13.4,73.721,0,59.708,24.371,103.575T2964.673,591.961Zm934.61-62.144,21.934,23.152q-25.589,41.43-82.86,74.939t-130.382,33.509a337.785,337.785,0,0,1-81.032-9.748,286.5,286.5,0,0,1-76.158-31.073q-36.556-21.324-59.1-62.144T3469.143,462.8V65.558H3364.349V30.221a598.29,598.29,0,0,0,85.906-6.093q42.039-6.093,87.124-22.543t80.423-42.04q35.337-25.589,61.535-67.628t35.947-96.872h29.244V30.221h108.449V65.558H3744.53V470.109q0,31.682,17.059,55.443t38.993,31.072q21.933,7.311,49.96,0A110.723,110.723,0,0,0,3899.282,529.817Z" transform="translate(-1.217 216.218)" fill="#14142b"/>
</svg>
